<svg version="1.1" id="logo" xmlns="http://www.w3.org/2000/svg" xmlns:xlink="http://www.w3.org/1999/xlink" x="0px" y="0px"
	 width="1024px" height="1024px" viewBox="0 0 1024 1024" enable-background="new 0 0 1024 1024" xml:space="preserve">
<path fill="#00a2d7" d="M361,188c278.352,0,504,225.648,504,504h86c0-325.848-264.152-590-590-590V188z"/>
<path fill="#00a2d7" d="M361,368c178.939,0,324,145.06,324,324h86c0-226.437-183.563-410-410-410V368z"/>
<path fill="#00a2d7" d="M361,451c-133.101,0-241,107.899-241,241s107.899,241,241,241s241-107.899,241-241S494.101,451,361,451z
	 M429.5,691c-37.832,0-68.5-30.669-68.5-68.5s30.668-68.5,68.5-68.5s68.5,30.669,68.5,68.5S467.332,691,429.5,691z"/>
</svg>
