<?xml version="1.0" standalone="no"?>
<!DOCTYPE svg PUBLIC "-//W3C//DTD SVG 20010904//EN"
 "http://www.w3.org/TR/2001/REC-SVG-20010904/DTD/svg10.dtd">
<svg version="1.0" xmlns="http://www.w3.org/2000/svg"
 width="694.000000pt" height="303.000000pt" viewBox="0 0 694.000000 303.000000"
 preserveAspectRatio="xMidYMid meet">
<metadata>
Created by potrace 1.13, written by Peter Selinger 2001-2015
</metadata>
<g transform="translate(0.000000,303.000000) scale(0.100000,-0.100000)"
fill="#000000" stroke="none">
<path d="M5295 2565 c-29 -28 -34 -85 -9 -109 8 -9 30 -16 49 -16 63 0 111 93
69 134 -24 25 -81 20 -109 -9z"/>
<path d="M1041 2503 c-32 -92 -63 -139 -111 -163 -61 -31 -120 -26 -213 17
l-78 37 -79 -79 c-44 -44 -80 -85 -80 -91 0 -7 16 -45 35 -85 40 -84 44 -133
16 -195 -25 -54 -57 -77 -152 -111 l-79 -28 0 -120 0 -120 79 -28 c95 -34 127
-57 152 -111 28 -62 24 -111 -16 -195 -19 -40 -35 -78 -35 -85 0 -6 36 -47 80
-91 l79 -79 78 37 c93 43 152 48 213 17 48 -24 79 -71 111 -163 l23 -68 119 3
119 3 28 78 c59 166 152 205 313 130 l78 -37 85 86 86 85 -35 69 c-44 87 -51
122 -37 174 18 68 68 114 160 146 l80 27 0 122 0 122 -80 27 c-92 32 -142 78
-160 146 -14 52 -7 87 37 174 l35 69 -86 85 -85 86 -78 -37 c-161 -75 -254
-36 -313 130 l-28 78 -119 3 -119 3 -23 -68z m286 -533 c63 -31 112 -80 149
-150 27 -50 27 -220 0 -270 -38 -71 -86 -119 -153 -152 -132 -65 -274 -38
-375 70 -113 121 -116 309 -5 429 106 115 245 141 384 73z"/>
<path d="M3592 2550 c-110 -23 -167 -85 -167 -182 0 -81 35 -127 140 -185 102
-56 115 -69 115 -108 0 -56 -28 -70 -134 -70 -50 0 -105 4 -122 9 -31 8 -32 8
-44 -44 -7 -28 -10 -53 -7 -56 15 -16 157 -25 225 -15 140 21 194 70 200 182
6 104 -22 143 -156 214 -93 50 -116 82 -85 123 32 42 95 50 208 27 29 -6 31
-5 43 41 7 26 9 51 5 55 -13 12 -174 19 -221 9z"/>
<path d="M4040 2369 c-92 -41 -146 -117 -156 -218 -12 -109 31 -207 102 -237
60 -25 207 -11 261 24 11 7 36 102 28 102 -1 0 -18 -7 -38 -15 -137 -57 -237
-28 -237 69 0 22 5 25 43 30 23 3 64 8 92 12 113 14 175 63 175 138 0 79 -50
116 -157 116 -47 0 -82 -7 -113 -21z m157 -85 c29 -40 -28 -77 -135 -90 -70
-7 -73 -3 -39 47 43 64 141 88 174 43z"/>
<path d="M4590 2379 c-14 -6 -37 -22 -52 -36 l-28 -27 0 32 c0 30 -2 32 -37
32 -80 0 -78 4 -80 -138 -1 -70 -8 -173 -15 -229 l-14 -103 58 0 c38 0 60 4
62 13 2 6 9 72 15 145 6 77 17 144 25 161 19 35 65 53 116 45 l38 -6 17 52
c15 44 15 54 4 61 -18 11 -78 10 -109 -2z"/>
<path d="M5644 2380 c-60 -19 -126 -73 -158 -130 -27 -49 -31 -64 -31 -135 0
-70 4 -86 28 -128 35 -58 87 -86 163 -87 99 0 154 34 154 96 l0 34 -37 -16
c-53 -22 -114 -22 -146 -1 -50 33 -60 137 -20 214 28 54 74 76 148 69 l61 -6
11 42 c6 24 9 45 7 48 -10 9 -149 9 -180 0z"/>
<path d="M6030 2369 c-92 -41 -146 -117 -156 -218 -12 -109 31 -207 102 -237
60 -25 207 -11 261 24 11 7 36 102 28 102 -1 0 -18 -7 -38 -15 -137 -57 -237
-28 -237 69 0 22 5 25 43 30 23 3 64 8 92 12 113 14 175 63 175 138 0 79 -50
116 -157 116 -47 0 -82 -7 -113 -21z m157 -85 c29 -40 -28 -77 -135 -90 -70
-7 -73 -3 -39 47 43 64 141 88 174 43z"/>
<path d="M4792 2373 l-54 -4 7 -42 c4 -23 25 -104 46 -181 21 -77 42 -162 45
-188 l7 -48 61 1 61 0 108 222 c59 122 107 227 107 234 0 9 -15 10 -52 7 -74
-8 -75 -8 -82 -46 -4 -18 -30 -93 -60 -165 l-53 -133 -28 148 c-15 81 -30 159
-32 175 -3 15 -11 26 -17 25 -6 -1 -35 -3 -64 -5z"/>
<path d="M5288 2373 l-38 -4 0 -97 c0 -53 -9 -157 -18 -229 l-18 -133 62 0 61
0 7 106 c4 58 13 156 21 217 8 61 15 119 15 129 0 19 -8 20 -92 11z"/>
<path d="M5163 1842 c-7 -4 -14 -48 -18 -107 -7 -113 -53 -543 -60 -562 -3
-10 13 -13 59 -13 l63 0 7 39 c6 40 62 132 84 139 12 4 63 -95 76 -150 6 -27
9 -28 71 -28 50 0 65 3 65 15 0 27 -40 122 -81 189 l-41 67 49 52 c56 60 108
126 102 131 -2 2 -32 6 -66 9 -61 5 -63 4 -77 -23 -7 -16 -43 -66 -78 -112
-36 -46 -71 -94 -78 -108 -7 -14 -15 -20 -17 -14 -4 11 42 400 53 457 6 27 5
27 -48 27 -29 0 -58 -4 -65 -8z"/>
<path d="M3314 1753 c4 -21 29 -135 56 -253 27 -118 52 -233 55 -255 14 -90
10 -85 73 -85 l58 0 58 153 c32 83 71 187 86 230 32 89 40 102 40 63 0 -21 43
-259 76 -423 4 -21 10 -23 63 -23 l59 0 13 38 c7 20 57 136 112 256 82 181
137 315 137 333 0 1 -30 3 -68 3 l-67 0 -14 -56 c-10 -44 -103 -309 -149 -424
-4 -9 -7 0 -9 20 -2 19 -17 119 -33 221 -17 102 -30 198 -30 212 0 27 -1 27
-69 27 l-69 0 -7 -36 c-3 -20 -34 -107 -67 -193 -34 -86 -69 -181 -79 -211
-21 -66 -17 -79 -54 205 -15 116 -29 216 -31 223 -2 8 -26 12 -75 12 l-71 0 6
-37z"/>
<path d="M4332 1618 c-148 -71 -201 -289 -99 -405 78 -89 220 -95 317 -14 79
65 122 210 90 305 -14 45 -62 101 -101 122 -43 22 -155 18 -207 -8z m132 -72
c80 -33 89 -190 17 -276 -19 -23 -37 -33 -68 -37 -37 -5 -46 -2 -71 24 -71 70
-42 240 48 285 42 21 34 21 74 4z"/>
<path d="M4940 1629 c-14 -6 -37 -22 -52 -36 l-28 -27 0 32 c0 30 -2 32 -37
32 -80 0 -78 4 -80 -138 -1 -70 -8 -173 -15 -229 l-14 -103 58 0 c38 0 60 4
62 13 2 6 9 72 15 145 6 77 17 144 25 161 19 35 65 53 116 45 l38 -6 17 52
c15 44 15 54 4 61 -18 11 -78 10 -109 -2z"/>
<path d="M5740 1619 c-92 -41 -146 -117 -156 -218 -12 -109 31 -207 102 -237
60 -25 207 -11 261 24 11 7 36 102 28 102 -1 0 -18 -7 -38 -15 -137 -57 -237
-28 -237 69 0 22 5 25 43 30 23 3 64 8 92 12 113 14 175 63 175 138 0 79 -50
116 -157 116 -47 0 -82 -7 -113 -21z m157 -85 c29 -40 -28 -77 -135 -90 -70
-7 -73 -3 -39 47 43 64 141 88 174 43z"/>
<path d="M6290 1629 c-14 -6 -37 -22 -52 -36 l-28 -27 0 32 c0 30 -2 32 -37
32 -80 0 -78 4 -80 -138 -1 -70 -8 -173 -15 -229 l-14 -103 58 0 c38 0 60 4
62 13 2 6 9 72 15 145 6 77 17 144 25 161 19 35 65 53 116 45 l38 -6 17 52
c15 44 15 54 4 61 -18 11 -78 10 -109 -2z"/>
<path d="M2306 1346 c-13 -30 -33 -59 -44 -65 -31 -17 -78 -13 -121 8 l-38 20
-43 -44 -43 -44 16 -43 c35 -91 12 -144 -72 -169 l-42 -12 3 -65 3 -65 40 -14
c60 -20 88 -57 82 -107 -2 -23 -10 -56 -18 -73 -13 -32 -12 -34 26 -73 21 -22
44 -40 51 -40 6 0 31 9 55 19 74 32 124 8 152 -74 l14 -40 61 -3 62 -3 25 56
c19 44 32 59 59 70 32 14 40 13 92 -6 l56 -21 43 42 44 43 -20 38 c-40 79 -18
138 62 169 l44 18 3 64 3 65 -42 12 c-85 26 -111 89 -70 170 l20 38 -47 46
-47 46 -35 -19 c-79 -43 -145 -16 -171 69 l-12 41 -64 0 -63 0 -24 -54z m161
-262 c86 -41 119 -153 69 -238 -60 -103 -193 -114 -273 -23 -120 137 38 339
204 261z"/>
<path d="M4924 1092 c-6 -4 -16 -76 -23 -167 -7 -89 -22 -240 -34 -338 l-23
-177 61 0 62 0 12 153 c11 135 40 397 57 500 l6 37 -54 0 c-29 0 -58 -4 -64
-8z"/>
<path d="M5173 1092 c-7 -5 -16 -63 -23 -157 -6 -83 -21 -234 -33 -338 l-23
-187 53 0 c28 0 55 4 58 10 4 6 17 4 35 -5 39 -20 126 -19 175 4 49 22 101 79
128 140 30 65 30 200 1 255 -50 96 -183 102 -262 12 -17 -20 -32 -33 -32 -29
0 5 9 71 20 148 11 77 20 143 20 148 0 9 -101 9 -117 -1z m248 -318 c21 -22
24 -35 24 -97 0 -120 -52 -187 -145 -187 -23 0 -50 5 -62 11 -18 10 -19 17
-13 67 10 88 34 150 74 193 46 48 85 52 122 13z"/>
<path d="M3296 1018 c-3 -13 -7 -36 -9 -52 l-5 -29 90 6 90 6 -6 -87 c-4 -48
-17 -169 -30 -270 l-22 -182 66 0 67 0 6 113 c7 120 35 393 42 415 3 9 25 11
88 6 l84 -7 6 39 c4 22 7 45 7 52 0 9 -54 12 -235 12 l-235 0 -4 -22z"/>
<path d="M3922 868 c-148 -71 -201 -289 -99 -405 78 -89 220 -95 317 -14 79
65 122 210 90 305 -14 45 -62 101 -101 122 -43 22 -155 18 -207 -8z m132 -72
c80 -33 89 -190 17 -276 -19 -23 -37 -33 -68 -37 -37 -5 -46 -2 -71 24 -71 70
-42 240 48 285 42 21 34 21 74 4z"/>
<path d="M4452 868 c-148 -71 -201 -289 -99 -405 78 -89 220 -95 317 -14 79
65 122 210 90 305 -14 45 -62 101 -101 122 -43 22 -155 18 -207 -8z m132 -72
c80 -33 89 -190 17 -276 -19 -23 -37 -33 -68 -37 -37 -5 -46 -2 -71 24 -71 70
-42 240 48 285 42 21 34 21 74 4z"/>
<path d="M5792 868 c-148 -71 -201 -289 -99 -405 78 -89 220 -95 317 -14 79
65 122 210 90 305 -14 45 -62 101 -101 122 -43 22 -155 18 -207 -8z m132 -72
c80 -33 89 -190 17 -276 -19 -23 -37 -33 -68 -37 -37 -5 -46 -2 -71 24 -71 70
-42 240 48 285 42 21 34 21 74 4z"/>
<path d="M6258 871 l-58 -6 61 -103 c59 -102 60 -103 42 -126 -57 -72 -145
-191 -154 -207 -9 -18 -5 -19 55 -19 l64 0 38 80 c20 44 44 86 51 92 18 15 23
8 65 -94 l32 -78 68 0 c48 0 68 4 68 13 0 7 -29 63 -65 125 -36 61 -65 115
-65 118 0 3 25 34 56 67 58 64 110 135 103 141 -2 2 -31 1 -64 -2 l-60 -5 -39
-79 c-24 -50 -42 -76 -47 -71 -6 6 -23 43 -39 84 -15 41 -34 74 -42 75 -7 0
-39 -2 -70 -5z"/>
<path d="M1586 820 c-7 -40 -31 -48 -60 -21 -27 25 -34 26 -64 3 -19 -15 -21
-22 -13 -43 14 -38 0 -53 -43 -46 -33 5 -38 3 -52 -25 -15 -28 -14 -31 6 -54
28 -29 20 -52 -20 -61 -28 -5 -31 -9 -28 -41 3 -31 7 -37 36 -44 38 -10 42
-32 11 -64 -19 -21 -20 -24 -5 -52 15 -28 18 -30 48 -21 42 12 62 -9 47 -49
-10 -26 -8 -29 34 -53 15 -8 24 -6 41 10 31 29 45 26 62 -14 12 -29 19 -35 44
-35 25 0 32 6 44 35 17 40 31 43 62 14 21 -19 24 -20 52 -5 27 14 30 19 25 54
-6 46 3 55 46 42 29 -8 32 -6 47 22 15 29 14 31 -7 54 -27 29 -18 55 22 64 19
5 25 13 27 42 3 32 1 36 -28 41 -41 9 -48 32 -19 63 22 24 22 26 7 52 -15 24
-22 27 -58 24 l-42 -4 4 42 c3 36 0 43 -24 58 -26 15 -28 15 -52 -7 -31 -29
-54 -22 -62 19 -6 27 -10 30 -44 30 -34 0 -38 -3 -44 -30z m91 -175 c12 -3 34
-20 48 -36 30 -36 35 -111 9 -147 -49 -71 -170 -67 -209 8 -36 70 -3 159 68
179 32 9 41 8 84 -4z"/>
</g>
</svg>
